# xmcd
#
# Track frame offsets: 
#        150
#        21989
#        48136
#        63139
#        88430
#        104690
#        123602
#        147931
#        178501
#        201782
#        219577
#
# Disc length: 3276 seconds
#
# Revision: 0
# Processed by: cddbd v1.5.2PL0 Copyright (c) Steve Scherf et al.
# Submitted via: ExactAudioCopy v0.95b4
#
DISCID=a40cca0b
DTITLE=Ruben - Lagrimas De Cristal
DYEAR=1997
DGENRE=Blues
TTITLE0=Sera
TTITLE1=Solo Tu
TTITLE2=Liberate
TTITLE3=Un Mondo Azul
TTITLE4=Lagrimas De Cristal
TTITLE5=Fantasias
TTITLE6=Estoy Solo
TTITLE7=De Fuego Y Piel
TTITLE8=Eres Tu
TTITLE9=Mami
TTITLE10=Morir
EXTD=
EXTT0=
EXTT1=
EXTT2=
EXTT3=
EXTT4=
EXTT5=
EXTT6=
EXTT7=
EXTT8=
EXTT9=
EXTT10=
PLAYORDER=
